<svg width="300" height="400" viewBox="0 0 300 400" fill="none" xmlns="http://www.w3.org/2000/svg">
<path d="M92 0H213C226.807 0 238 11.1929 238 25V25C238 38.8071 226.807 50 213 50H142C114.386 50 92 27.6142 92 0V0Z" fill="#FF4A4A"/>
<path fill-rule="evenodd" clip-rule="evenodd" d="M50 0C22.3858 0 0 22.3858 0 50V350C0 377.614 22.3858 400 50 400H100C127.614 400 150 377.614 150 350V139.218C163.591 132.828 173 119.013 173 103C173 86.9873 163.591 73.1722 150 66.7818V50C150 22.3858 127.614 0 100 0H50ZM150 66.7818C144.841 64.3559 139.079 63 133 63H83V143H133C139.079 143 144.841 141.644 150 139.218V66.7818Z" fill="#FF4A4A"/>
<rect x="150" width="150" height="400" rx="50" fill="#FC7F24"/>
<rect x="73" y="200" width="165" height="70" rx="35" fill="#FC7F24"/>
</svg>
